<svg width="24" height="24" viewBox="0 0 24 24" fill="none" xmlns="http://www.w3.org/2000/svg">
  <path fill-rule="evenodd" clip-rule="evenodd" d="M4 3.5A2.5 2.5 0 0 1 6.5 1h11A2.5 2.5 0 0 1 20 3.5v17a2.5 2.5 0 0 1-2.5 2.5h-11A2.5 2.5 0 0 1 4 20.5v-17ZM6.5 3a.5.5 0 0 0-.5.5v17a.5.5 0 0 0 .5.5h11a.5.5 0 0 0 .5-.5v-17a.5.5 0 0 0-.5-.5h-11Z" fill="currentColor"/>
  <path d="M8 6.75A.75.75 0 0 1 8.75 6h6.5a.75.75 0 0 1 0 1.5h-6.5A.75.75 0 0 1 8 6.75Z" fill="currentColor"/>
  <path d="M8 10.75a.75.75 0 0 1 .75-.75h4a.75.75 0 0 1 0 1.5h-4a.75.75 0 0 1-.75-.75Z" fill="currentColor"/>
  <path fill-rule="evenodd" clip-rule="evenodd" d="M16.78 14.22a.75.75 0 0 1 0 1.06l-4 4a.75.75 0 0 1-1.06 0l-2-2a.75.75 0 1 1 1.06-1.06l1.47 1.47 3.47-3.47a.75.75 0 0 1 1.06 0Z" fill="currentColor"/>
</svg>
